<mxfile host="Electron" modified="2023-04-17T07:10:11.366Z" agent="Mozilla/5.0 (X11; Linux x86_64) AppleWebKit/537.36 (KHTML, like Gecko) draw.io/21.1.2 Chrome/106.0.5249.199 Electron/21.4.3 Safari/537.36" etag="0PxRzhwlxTFGzpoK7_-g" version="21.1.2" type="device">
  <diagram name="第 1 页" id="9hV-YUXyW37Wp_MY5dpQ">
    <mxGraphModel dx="2306" dy="2072" grid="1" gridSize="10" guides="1" tooltips="1" connect="1" arrows="1" fold="1" page="1" pageScale="1" pageWidth="827" pageHeight="1169" math="0" shadow="0">
      <root>
        <mxCell id="0" />
        <mxCell id="1" parent="0" />
        <mxCell id="Y7tWuOjDYnu3Ty12sWAu-10" value="TCU Firmware (F1)" style="rounded=0;whiteSpace=wrap;html=1;align=left;horizontal=1;verticalAlign=top;fontStyle=1;fillColor=#fad9d5;strokeColor=#ae4132;" vertex="1" parent="1">
          <mxGeometry x="-710" y="40" width="210" height="90" as="geometry" />
        </mxCell>
        <mxCell id="VghJRRn8wF-ZX5bL6vpT-7" style="edgeStyle=orthogonalEdgeStyle;rounded=0;orthogonalLoop=1;jettySize=auto;html=1;exitX=0.5;exitY=1;exitDx=0;exitDy=0;entryX=0.5;entryY=0;entryDx=0;entryDy=0;" parent="1" source="VghJRRn8wF-ZX5bL6vpT-1" target="VghJRRn8wF-ZX5bL6vpT-4" edge="1">
          <mxGeometry relative="1" as="geometry" />
        </mxCell>
        <mxCell id="VghJRRn8wF-ZX5bL6vpT-8" style="edgeStyle=orthogonalEdgeStyle;rounded=0;orthogonalLoop=1;jettySize=auto;html=1;exitX=0.25;exitY=1;exitDx=0;exitDy=0;" parent="1" source="VghJRRn8wF-ZX5bL6vpT-1" target="VghJRRn8wF-ZX5bL6vpT-2" edge="1">
          <mxGeometry relative="1" as="geometry" />
        </mxCell>
        <mxCell id="VghJRRn8wF-ZX5bL6vpT-9" style="edgeStyle=orthogonalEdgeStyle;rounded=0;orthogonalLoop=1;jettySize=auto;html=1;exitX=0.75;exitY=1;exitDx=0;exitDy=0;" parent="1" source="VghJRRn8wF-ZX5bL6vpT-1" target="VghJRRn8wF-ZX5bL6vpT-3" edge="1">
          <mxGeometry relative="1" as="geometry" />
        </mxCell>
        <mxCell id="VghJRRn8wF-ZX5bL6vpT-1" value="Applications" style="rounded=0;whiteSpace=wrap;html=1;fontStyle=1;fillColor=#0050ef;strokeColor=#001DBC;fontColor=#ffffff;" parent="1" vertex="1">
          <mxGeometry x="260" y="150" width="370" height="50" as="geometry" />
        </mxCell>
        <mxCell id="VghJRRn8wF-ZX5bL6vpT-11" style="edgeStyle=orthogonalEdgeStyle;rounded=0;orthogonalLoop=1;jettySize=auto;html=1;exitX=0.5;exitY=1;exitDx=0;exitDy=0;entryX=0.25;entryY=0;entryDx=0;entryDy=0;" parent="1" source="VghJRRn8wF-ZX5bL6vpT-2" target="VghJRRn8wF-ZX5bL6vpT-4" edge="1">
          <mxGeometry relative="1" as="geometry" />
        </mxCell>
        <mxCell id="VghJRRn8wF-ZX5bL6vpT-2" value="Cryptoki - PKCS#11&lt;br&gt;libpkcs11" style="rounded=0;whiteSpace=wrap;html=1;fillColor=#008a00;fontColor=#ffffff;strokeColor=#005700;" parent="1" vertex="1">
          <mxGeometry x="292" y="240" width="120" height="40" as="geometry" />
        </mxCell>
        <mxCell id="VghJRRn8wF-ZX5bL6vpT-12" style="edgeStyle=orthogonalEdgeStyle;rounded=0;orthogonalLoop=1;jettySize=auto;html=1;exitX=0.5;exitY=1;exitDx=0;exitDy=0;entryX=0.75;entryY=0;entryDx=0;entryDy=0;" parent="1" source="VghJRRn8wF-ZX5bL6vpT-3" target="VghJRRn8wF-ZX5bL6vpT-4" edge="1">
          <mxGeometry relative="1" as="geometry" />
        </mxCell>
        <mxCell id="VghJRRn8wF-ZX5bL6vpT-3" value="OpenSSL Engine&lt;br&gt;libeng_secure_obj" style="rounded=0;whiteSpace=wrap;html=1;fillColor=#008a00;fontColor=#ffffff;strokeColor=#005700;" parent="1" vertex="1">
          <mxGeometry x="478" y="240" width="120" height="40" as="geometry" />
        </mxCell>
        <mxCell id="VghJRRn8wF-ZX5bL6vpT-13" style="edgeStyle=orthogonalEdgeStyle;rounded=0;orthogonalLoop=1;jettySize=auto;html=1;exitX=0.5;exitY=1;exitDx=0;exitDy=0;" parent="1" source="VghJRRn8wF-ZX5bL6vpT-4" target="VghJRRn8wF-ZX5bL6vpT-6" edge="1">
          <mxGeometry relative="1" as="geometry" />
        </mxCell>
        <mxCell id="VghJRRn8wF-ZX5bL6vpT-4" value="Secure Object Library (HSM) - libsecure_obj" style="rounded=0;whiteSpace=wrap;html=1;fontStyle=0;fillColor=#fa6800;fontColor=#000000;strokeColor=#C73500;" parent="1" vertex="1">
          <mxGeometry x="260" y="320" width="370" height="30" as="geometry" />
        </mxCell>
        <mxCell id="VghJRRn8wF-ZX5bL6vpT-5" value="HSM/TEE" style="rounded=0;whiteSpace=wrap;html=1;fontStyle=1;align=left;verticalAlign=top;fillColor=#647687;fontColor=#ffffff;strokeColor=#314354;" parent="1" vertex="1">
          <mxGeometry x="260" y="390" width="370" height="70" as="geometry" />
        </mxCell>
        <mxCell id="VghJRRn8wF-ZX5bL6vpT-6" value="SMC Interface&lt;br&gt;Secure Storage| CAAM Driver" style="rounded=0;whiteSpace=wrap;html=1;fontStyle=1;fillColor=#e51400;fontColor=#ffffff;strokeColor=#B20000;" parent="1" vertex="1">
          <mxGeometry x="350" y="400" width="190" height="50" as="geometry" />
        </mxCell>
        <mxCell id="VghJRRn8wF-ZX5bL6vpT-18" style="edgeStyle=orthogonalEdgeStyle;rounded=0;orthogonalLoop=1;jettySize=auto;html=1;exitX=0.5;exitY=1;exitDx=0;exitDy=0;entryX=0.5;entryY=0;entryDx=0;entryDy=0;" parent="1" source="VghJRRn8wF-ZX5bL6vpT-14" target="VghJRRn8wF-ZX5bL6vpT-17" edge="1">
          <mxGeometry relative="1" as="geometry" />
        </mxCell>
        <mxCell id="VghJRRn8wF-ZX5bL6vpT-14" value="Init PKCS#11 Token" style="rounded=0;whiteSpace=wrap;html=1;" parent="1" vertex="1">
          <mxGeometry x="70" y="690" width="120" height="40" as="geometry" />
        </mxCell>
        <mxCell id="VghJRRn8wF-ZX5bL6vpT-16" style="edgeStyle=orthogonalEdgeStyle;rounded=0;orthogonalLoop=1;jettySize=auto;html=1;exitX=0.5;exitY=1;exitDx=0;exitDy=0;" parent="1" source="VghJRRn8wF-ZX5bL6vpT-14" target="VghJRRn8wF-ZX5bL6vpT-14" edge="1">
          <mxGeometry relative="1" as="geometry" />
        </mxCell>
        <mxCell id="VghJRRn8wF-ZX5bL6vpT-20" style="edgeStyle=orthogonalEdgeStyle;rounded=0;orthogonalLoop=1;jettySize=auto;html=1;exitX=0.5;exitY=1;exitDx=0;exitDy=0;entryX=0.5;entryY=0;entryDx=0;entryDy=0;" parent="1" source="VghJRRn8wF-ZX5bL6vpT-17" target="VghJRRn8wF-ZX5bL6vpT-19" edge="1">
          <mxGeometry relative="1" as="geometry" />
        </mxCell>
        <mxCell id="VghJRRn8wF-ZX5bL6vpT-17" value="Generate RSA key pair on PKCS#11 token" style="rounded=0;whiteSpace=wrap;html=1;" parent="1" vertex="1">
          <mxGeometry x="25" y="770" width="210" height="40" as="geometry" />
        </mxCell>
        <mxCell id="VghJRRn8wF-ZX5bL6vpT-27" style="edgeStyle=orthogonalEdgeStyle;rounded=0;orthogonalLoop=1;jettySize=auto;html=1;exitX=0.5;exitY=1;exitDx=0;exitDy=0;" parent="1" source="VghJRRn8wF-ZX5bL6vpT-19" target="VghJRRn8wF-ZX5bL6vpT-26" edge="1">
          <mxGeometry relative="1" as="geometry" />
        </mxCell>
        <mxCell id="VghJRRn8wF-ZX5bL6vpT-19" value="Create a CSR" style="rounded=0;whiteSpace=wrap;html=1;" parent="1" vertex="1">
          <mxGeometry x="25" y="850" width="210" height="40" as="geometry" />
        </mxCell>
        <mxCell id="VghJRRn8wF-ZX5bL6vpT-21" value="" style="sketch=0;pointerEvents=1;shadow=0;dashed=0;html=1;strokeColor=none;labelPosition=center;verticalLabelPosition=bottom;verticalAlign=top;outlineConnect=0;align=center;shape=mxgraph.office.security.key_permissions;fillColor=#DA4026;" parent="1" vertex="1">
          <mxGeometry x="240" y="780" width="10" height="20" as="geometry" />
        </mxCell>
        <mxCell id="VghJRRn8wF-ZX5bL6vpT-22" value="" style="sketch=0;pointerEvents=1;shadow=0;dashed=0;html=1;strokeColor=none;labelPosition=center;verticalLabelPosition=bottom;verticalAlign=top;outlineConnect=0;align=center;shape=mxgraph.office.security.key_permissions;fillColor=#7FBA42;" parent="1" vertex="1">
          <mxGeometry x="260" y="780" width="10" height="20" as="geometry" />
        </mxCell>
        <mxCell id="VghJRRn8wF-ZX5bL6vpT-31" style="edgeStyle=orthogonalEdgeStyle;rounded=0;orthogonalLoop=1;jettySize=auto;html=1;exitX=0.8;exitY=0.8;exitDx=0;exitDy=0;exitPerimeter=0;curved=1;" parent="1" source="VghJRRn8wF-ZX5bL6vpT-24" target="VghJRRn8wF-ZX5bL6vpT-30" edge="1">
          <mxGeometry relative="1" as="geometry">
            <Array as="points">
              <mxPoint x="-18" y="1040" />
            </Array>
          </mxGeometry>
        </mxCell>
        <mxCell id="VghJRRn8wF-ZX5bL6vpT-24" value="CA" style="ellipse;shape=cloud;whiteSpace=wrap;html=1;fontStyle=1" parent="1" vertex="1">
          <mxGeometry x="-90" y="990" width="90" height="50" as="geometry" />
        </mxCell>
        <mxCell id="VghJRRn8wF-ZX5bL6vpT-29" style="edgeStyle=orthogonalEdgeStyle;rounded=0;orthogonalLoop=1;jettySize=auto;html=1;exitX=0;exitY=0.5;exitDx=0;exitDy=0;entryX=0.625;entryY=0.2;entryDx=0;entryDy=0;entryPerimeter=0;curved=1;" parent="1" source="VghJRRn8wF-ZX5bL6vpT-26" target="VghJRRn8wF-ZX5bL6vpT-24" edge="1">
          <mxGeometry relative="1" as="geometry" />
        </mxCell>
        <mxCell id="VghJRRn8wF-ZX5bL6vpT-26" value="Submit the certificate request to a certificate authority" style="rounded=0;whiteSpace=wrap;html=1;" parent="1" vertex="1">
          <mxGeometry x="25" y="930" width="210" height="40" as="geometry" />
        </mxCell>
        <mxCell id="VghJRRn8wF-ZX5bL6vpT-44" style="rounded=0;orthogonalLoop=1;jettySize=auto;html=1;exitX=0.5;exitY=1;exitDx=0;exitDy=0;entryX=0.5;entryY=0;entryDx=0;entryDy=0;" parent="1" source="VghJRRn8wF-ZX5bL6vpT-30" target="VghJRRn8wF-ZX5bL6vpT-42" edge="1">
          <mxGeometry relative="1" as="geometry" />
        </mxCell>
        <mxCell id="VghJRRn8wF-ZX5bL6vpT-30" value="Receive a certificate" style="rounded=0;whiteSpace=wrap;html=1;" parent="1" vertex="1">
          <mxGeometry x="25" y="1020" width="210" height="40" as="geometry" />
        </mxCell>
        <mxCell id="VghJRRn8wF-ZX5bL6vpT-32" value="CSR" style="text;html=1;align=center;verticalAlign=middle;resizable=0;points=[];autosize=1;strokeColor=none;fillColor=none;fontStyle=1" parent="1" vertex="1">
          <mxGeometry x="-35" y="955" width="50" height="30" as="geometry" />
        </mxCell>
        <mxCell id="VghJRRn8wF-ZX5bL6vpT-33" value="CERT" style="text;html=1;align=center;verticalAlign=middle;resizable=0;points=[];autosize=1;strokeColor=none;fillColor=none;fontStyle=1" parent="1" vertex="1">
          <mxGeometry x="-40" y="1032" width="60" height="30" as="geometry" />
        </mxCell>
        <mxCell id="VghJRRn8wF-ZX5bL6vpT-35" value="" style="group" parent="1" vertex="1" connectable="0">
          <mxGeometry x="240" y="857" width="80" height="30" as="geometry" />
        </mxCell>
        <mxCell id="VghJRRn8wF-ZX5bL6vpT-23" value="" style="sketch=0;pointerEvents=1;shadow=0;dashed=0;html=1;strokeColor=none;fillColor=#505050;labelPosition=center;verticalLabelPosition=bottom;verticalAlign=top;outlineConnect=0;align=center;shape=mxgraph.office.concepts.file_key;" parent="VghJRRn8wF-ZX5bL6vpT-35" vertex="1">
          <mxGeometry y="3.5" width="20" height="23" as="geometry" />
        </mxCell>
        <mxCell id="VghJRRn8wF-ZX5bL6vpT-34" value="&amp;nbsp; &amp;nbsp; &amp;nbsp; &amp;nbsp;client.csr" style="text;html=1;align=center;verticalAlign=middle;resizable=0;points=[];autosize=1;strokeColor=none;fillColor=none;" parent="VghJRRn8wF-ZX5bL6vpT-35" vertex="1">
          <mxGeometry x="-10" width="90" height="30" as="geometry" />
        </mxCell>
        <mxCell id="VghJRRn8wF-ZX5bL6vpT-36" value="" style="group" parent="1" vertex="1" connectable="0">
          <mxGeometry x="240" y="1027" width="79.9976923076923" height="30" as="geometry" />
        </mxCell>
        <mxCell id="VghJRRn8wF-ZX5bL6vpT-37" value="" style="sketch=0;pointerEvents=1;shadow=0;dashed=0;html=1;strokeColor=none;fillColor=#FF0080;labelPosition=center;verticalLabelPosition=bottom;verticalAlign=top;outlineConnect=0;align=center;shape=mxgraph.office.concepts.file_key;" parent="VghJRRn8wF-ZX5bL6vpT-36" vertex="1">
          <mxGeometry y="3.5" width="21.538461538461537" height="23" as="geometry" />
        </mxCell>
        <mxCell id="VghJRRn8wF-ZX5bL6vpT-38" value="&amp;nbsp; &amp;nbsp;client.crt" style="text;html=1;align=center;verticalAlign=middle;resizable=0;points=[];autosize=1;strokeColor=none;fillColor=none;" parent="VghJRRn8wF-ZX5bL6vpT-36" vertex="1">
          <mxGeometry x="-0.002307692307692122" width="80" height="30" as="geometry" />
        </mxCell>
        <mxCell id="VghJRRn8wF-ZX5bL6vpT-42" value="collect" style="rounded=0;whiteSpace=wrap;html=1;" parent="1" vertex="1">
          <mxGeometry x="25" y="1100" width="210" height="40" as="geometry" />
        </mxCell>
        <mxCell id="VghJRRn8wF-ZX5bL6vpT-51" value="" style="group" parent="1" vertex="1" connectable="0">
          <mxGeometry x="240" y="1110" width="74.9976923076923" height="30" as="geometry" />
        </mxCell>
        <mxCell id="VghJRRn8wF-ZX5bL6vpT-52" value="" style="sketch=0;pointerEvents=1;shadow=0;dashed=0;html=1;strokeColor=none;fillColor=#FF0000;labelPosition=center;verticalLabelPosition=bottom;verticalAlign=top;outlineConnect=0;align=center;shape=mxgraph.office.concepts.file_key;" parent="VghJRRn8wF-ZX5bL6vpT-51" vertex="1">
          <mxGeometry y="3.5" width="21.538461538461537" height="23" as="geometry" />
        </mxCell>
        <mxCell id="VghJRRn8wF-ZX5bL6vpT-53" value="&amp;nbsp;CA-Cert" style="text;html=1;align=center;verticalAlign=middle;resizable=0;points=[];autosize=1;strokeColor=none;fillColor=none;" parent="VghJRRn8wF-ZX5bL6vpT-51" vertex="1">
          <mxGeometry x="4.997692307692308" width="70" height="30" as="geometry" />
        </mxCell>
        <mxCell id="VghJRRn8wF-ZX5bL6vpT-56" value="TCU" style="rounded=0;whiteSpace=wrap;html=1;fontStyle=1" parent="1" vertex="1">
          <mxGeometry x="375" y="1250" width="150" height="70" as="geometry" />
        </mxCell>
        <mxCell id="VghJRRn8wF-ZX5bL6vpT-57" value="XCU" style="rounded=0;whiteSpace=wrap;html=1;verticalAlign=bottom;fontStyle=1" parent="1" vertex="1">
          <mxGeometry x="235" y="1380" width="300" height="170" as="geometry" />
        </mxCell>
        <mxCell id="VghJRRn8wF-ZX5bL6vpT-58" value="CPU1" style="rounded=0;whiteSpace=wrap;html=1;fontStyle=1" parent="1" vertex="1">
          <mxGeometry x="252.5" y="1460" width="80" height="58" as="geometry" />
        </mxCell>
        <mxCell id="VghJRRn8wF-ZX5bL6vpT-99" style="edgeStyle=orthogonalEdgeStyle;curved=1;rounded=0;orthogonalLoop=1;jettySize=auto;html=1;exitX=0.5;exitY=0;exitDx=0;exitDy=0;startArrow=classic;startFill=1;strokeWidth=2;" parent="1" source="VghJRRn8wF-ZX5bL6vpT-59" target="VghJRRn8wF-ZX5bL6vpT-60" edge="1">
          <mxGeometry relative="1" as="geometry" />
        </mxCell>
        <mxCell id="VghJRRn8wF-ZX5bL6vpT-59" value="CPU2" style="rounded=0;whiteSpace=wrap;html=1;fontStyle=1" parent="1" vertex="1">
          <mxGeometry x="345" y="1460" width="80" height="58" as="geometry" />
        </mxCell>
        <mxCell id="VghJRRn8wF-ZX5bL6vpT-60" value="交换机" style="rounded=0;whiteSpace=wrap;html=1;verticalAlign=bottom;fontStyle=1" parent="1" vertex="1">
          <mxGeometry x="252.5" y="1400" width="265" height="30" as="geometry" />
        </mxCell>
        <mxCell id="VghJRRn8wF-ZX5bL6vpT-93" style="edgeStyle=orthogonalEdgeStyle;curved=1;rounded=0;orthogonalLoop=1;jettySize=auto;html=1;exitX=0.875;exitY=0.5;exitDx=0;exitDy=0;exitPerimeter=0;startArrow=classic;startFill=1;strokeWidth=2;" parent="1" source="VghJRRn8wF-ZX5bL6vpT-67" target="VghJRRn8wF-ZX5bL6vpT-92" edge="1">
          <mxGeometry relative="1" as="geometry" />
        </mxCell>
        <mxCell id="VghJRRn8wF-ZX5bL6vpT-67" value="Network" style="ellipse;shape=cloud;whiteSpace=wrap;html=1;fontStyle=1" parent="1" vertex="1">
          <mxGeometry x="70" y="1245" width="118" height="80" as="geometry" />
        </mxCell>
        <mxCell id="VghJRRn8wF-ZX5bL6vpT-102" style="edgeStyle=orthogonalEdgeStyle;curved=1;rounded=0;orthogonalLoop=1;jettySize=auto;html=1;exitX=0.5;exitY=0;exitDx=0;exitDy=0;entryX=0.75;entryY=1;entryDx=0;entryDy=0;startArrow=classic;startFill=1;strokeWidth=2;" parent="1" source="VghJRRn8wF-ZX5bL6vpT-88" target="VghJRRn8wF-ZX5bL6vpT-60" edge="1">
          <mxGeometry relative="1" as="geometry">
            <Array as="points">
              <mxPoint x="494" y="1440" />
              <mxPoint x="451" y="1440" />
            </Array>
          </mxGeometry>
        </mxCell>
        <mxCell id="VghJRRn8wF-ZX5bL6vpT-88" value="s32g" style="rounded=0;whiteSpace=wrap;html=1;fontStyle=1" parent="1" vertex="1">
          <mxGeometry x="470" y="1460" width="47.5" height="58" as="geometry" />
        </mxCell>
        <mxCell id="VghJRRn8wF-ZX5bL6vpT-94" style="edgeStyle=orthogonalEdgeStyle;curved=1;rounded=0;orthogonalLoop=1;jettySize=auto;html=1;exitX=1;exitY=0.5;exitDx=0;exitDy=0;startArrow=classic;startFill=1;strokeWidth=2;" parent="1" source="VghJRRn8wF-ZX5bL6vpT-92" target="VghJRRn8wF-ZX5bL6vpT-56" edge="1">
          <mxGeometry relative="1" as="geometry" />
        </mxCell>
        <mxCell id="VghJRRn8wF-ZX5bL6vpT-92" value="4G module" style="rounded=0;whiteSpace=wrap;html=1;fontStyle=1" parent="1" vertex="1">
          <mxGeometry x="225" y="1250" width="85" height="70" as="geometry" />
        </mxCell>
        <mxCell id="VghJRRn8wF-ZX5bL6vpT-96" style="edgeStyle=orthogonalEdgeStyle;curved=1;rounded=0;orthogonalLoop=1;jettySize=auto;html=1;exitX=0.5;exitY=1;exitDx=0;exitDy=0;startArrow=classic;startFill=1;strokeWidth=2;" parent="1" source="VghJRRn8wF-ZX5bL6vpT-56" target="VghJRRn8wF-ZX5bL6vpT-60" edge="1">
          <mxGeometry relative="1" as="geometry" />
        </mxCell>
        <mxCell id="VghJRRn8wF-ZX5bL6vpT-97" value="...." style="rounded=0;whiteSpace=wrap;html=1;fontStyle=1" parent="1" vertex="1">
          <mxGeometry x="433.13" y="1460" width="23.75" height="58" as="geometry" />
        </mxCell>
        <mxCell id="VghJRRn8wF-ZX5bL6vpT-98" style="edgeStyle=orthogonalEdgeStyle;curved=1;rounded=0;orthogonalLoop=1;jettySize=auto;html=1;exitX=0.5;exitY=0;exitDx=0;exitDy=0;entryX=0.25;entryY=1;entryDx=0;entryDy=0;startArrow=classic;startFill=1;strokeWidth=2;" parent="1" source="VghJRRn8wF-ZX5bL6vpT-58" target="VghJRRn8wF-ZX5bL6vpT-60" edge="1">
          <mxGeometry relative="1" as="geometry" />
        </mxCell>
        <mxCell id="VghJRRn8wF-ZX5bL6vpT-104" value="LAN" style="text;html=1;align=center;verticalAlign=middle;resizable=0;points=[];autosize=1;strokeColor=none;fillColor=none;" parent="1" vertex="1">
          <mxGeometry x="383.13" y="1375" width="50" height="30" as="geometry" />
        </mxCell>
        <mxCell id="VghJRRn8wF-ZX5bL6vpT-105" value="LAN" style="text;html=1;align=center;verticalAlign=middle;resizable=0;points=[];autosize=1;strokeColor=none;fillColor=none;" parent="1" vertex="1">
          <mxGeometry x="443" y="1313" width="50" height="30" as="geometry" />
        </mxCell>
        <mxCell id="fo2CDZz4YBns0Yib_G0x-1" value="" style="group" parent="1" vertex="1" connectable="0">
          <mxGeometry x="240" y="1139" width="79.9976923076923" height="30" as="geometry" />
        </mxCell>
        <mxCell id="fo2CDZz4YBns0Yib_G0x-2" value="" style="sketch=0;pointerEvents=1;shadow=0;dashed=0;html=1;strokeColor=none;fillColor=#FF0080;labelPosition=center;verticalLabelPosition=bottom;verticalAlign=top;outlineConnect=0;align=center;shape=mxgraph.office.concepts.file_key;" parent="fo2CDZz4YBns0Yib_G0x-1" vertex="1">
          <mxGeometry y="3.5" width="21.538461538461537" height="23" as="geometry" />
        </mxCell>
        <mxCell id="fo2CDZz4YBns0Yib_G0x-3" value="&amp;nbsp; &amp;nbsp;client.crt" style="text;html=1;align=center;verticalAlign=middle;resizable=0;points=[];autosize=1;strokeColor=none;fillColor=none;" parent="fo2CDZz4YBns0Yib_G0x-1" vertex="1">
          <mxGeometry x="-0.002307692307692122" width="80" height="30" as="geometry" />
        </mxCell>
        <mxCell id="fo2CDZz4YBns0Yib_G0x-4" value="" style="sketch=0;pointerEvents=1;shadow=0;dashed=0;html=1;strokeColor=none;labelPosition=center;verticalLabelPosition=bottom;verticalAlign=top;outlineConnect=0;align=center;shape=mxgraph.office.security.key_permissions;fillColor=#DA4026;" parent="1" vertex="1">
          <mxGeometry x="240" y="1169" width="10" height="20" as="geometry" />
        </mxCell>
        <mxCell id="fo2CDZz4YBns0Yib_G0x-5" value="" style="sketch=0;pointerEvents=1;shadow=0;dashed=0;html=1;strokeColor=none;labelPosition=center;verticalLabelPosition=bottom;verticalAlign=top;outlineConnect=0;align=center;shape=mxgraph.office.security.key_permissions;fillColor=#7FBA42;" parent="1" vertex="1">
          <mxGeometry x="260" y="1169" width="10" height="20" as="geometry" />
        </mxCell>
        <mxCell id="fo2CDZz4YBns0Yib_G0x-6" style="edgeStyle=orthogonalEdgeStyle;rounded=0;orthogonalLoop=1;jettySize=auto;html=1;exitX=0.5;exitY=1;exitDx=0;exitDy=0;entryX=0.5;entryY=0;entryDx=0;entryDy=0;fontStyle=1" parent="1" source="fo2CDZz4YBns0Yib_G0x-7" target="fo2CDZz4YBns0Yib_G0x-10" edge="1">
          <mxGeometry relative="1" as="geometry" />
        </mxCell>
        <mxCell id="fo2CDZz4YBns0Yib_G0x-7" value="Start" style="rounded=0;whiteSpace=wrap;html=1;fillColor=#008a00;strokeColor=#005700;fontColor=#ffffff;fontStyle=1" parent="1" vertex="1">
          <mxGeometry x="510" y="590" width="120" height="40" as="geometry" />
        </mxCell>
        <mxCell id="fo2CDZz4YBns0Yib_G0x-8" style="edgeStyle=orthogonalEdgeStyle;rounded=0;orthogonalLoop=1;jettySize=auto;html=1;exitX=0.5;exitY=1;exitDx=0;exitDy=0;fontStyle=1" parent="1" source="fo2CDZz4YBns0Yib_G0x-7" target="fo2CDZz4YBns0Yib_G0x-7" edge="1">
          <mxGeometry relative="1" as="geometry" />
        </mxCell>
        <mxCell id="fo2CDZz4YBns0Yib_G0x-9" style="edgeStyle=orthogonalEdgeStyle;rounded=0;orthogonalLoop=1;jettySize=auto;html=1;exitX=0.5;exitY=1;exitDx=0;exitDy=0;entryX=0.5;entryY=0;entryDx=0;entryDy=0;fontStyle=1" parent="1" source="fo2CDZz4YBns0Yib_G0x-10" target="fo2CDZz4YBns0Yib_G0x-12" edge="1">
          <mxGeometry relative="1" as="geometry" />
        </mxCell>
        <mxCell id="fo2CDZz4YBns0Yib_G0x-10" value="Generate RSA key pair" style="rounded=0;whiteSpace=wrap;html=1;fillColor=#1ba1e2;fontColor=#ffffff;strokeColor=#006EAF;fontStyle=1" parent="1" vertex="1">
          <mxGeometry x="465" y="670" width="210" height="40" as="geometry" />
        </mxCell>
        <mxCell id="fo2CDZz4YBns0Yib_G0x-11" style="edgeStyle=orthogonalEdgeStyle;rounded=0;orthogonalLoop=1;jettySize=auto;html=1;exitX=0.5;exitY=1;exitDx=0;exitDy=0;fontStyle=1" parent="1" source="fo2CDZz4YBns0Yib_G0x-12" target="fo2CDZz4YBns0Yib_G0x-18" edge="1">
          <mxGeometry relative="1" as="geometry" />
        </mxCell>
        <mxCell id="fo2CDZz4YBns0Yib_G0x-12" value="Create a CSR" style="rounded=0;whiteSpace=wrap;html=1;fillColor=#1ba1e2;fontColor=#ffffff;strokeColor=#006EAF;fontStyle=1" parent="1" vertex="1">
          <mxGeometry x="465" y="750" width="210" height="40" as="geometry" />
        </mxCell>
        <mxCell id="fo2CDZz4YBns0Yib_G0x-13" value="" style="sketch=0;pointerEvents=1;shadow=0;dashed=0;html=1;strokeColor=none;labelPosition=center;verticalLabelPosition=bottom;verticalAlign=top;outlineConnect=0;align=center;shape=mxgraph.office.security.key_permissions;fillColor=#DA4026;fontStyle=1" parent="1" vertex="1">
          <mxGeometry x="680" y="680" width="10" height="20" as="geometry" />
        </mxCell>
        <mxCell id="fo2CDZz4YBns0Yib_G0x-14" value="" style="sketch=0;pointerEvents=1;shadow=0;dashed=0;html=1;strokeColor=none;labelPosition=center;verticalLabelPosition=bottom;verticalAlign=top;outlineConnect=0;align=center;shape=mxgraph.office.security.key_permissions;fillColor=#7FBA42;fontStyle=1" parent="1" vertex="1">
          <mxGeometry x="700" y="680" width="10" height="20" as="geometry" />
        </mxCell>
        <mxCell id="fo2CDZz4YBns0Yib_G0x-15" style="edgeStyle=orthogonalEdgeStyle;rounded=0;orthogonalLoop=1;jettySize=auto;html=1;exitX=0.8;exitY=0.8;exitDx=0;exitDy=0;exitPerimeter=0;curved=1;fontStyle=1" parent="1" source="fo2CDZz4YBns0Yib_G0x-16" target="fo2CDZz4YBns0Yib_G0x-20" edge="1">
          <mxGeometry relative="1" as="geometry">
            <Array as="points">
              <mxPoint x="422" y="940" />
            </Array>
          </mxGeometry>
        </mxCell>
        <mxCell id="fo2CDZz4YBns0Yib_G0x-16" value="CA" style="ellipse;shape=cloud;whiteSpace=wrap;html=1;fontStyle=1;fillColor=#a20025;strokeColor=#6F0000;fontColor=#ffffff;" parent="1" vertex="1">
          <mxGeometry x="350" y="890" width="90" height="50" as="geometry" />
        </mxCell>
        <mxCell id="fo2CDZz4YBns0Yib_G0x-17" style="edgeStyle=orthogonalEdgeStyle;rounded=0;orthogonalLoop=1;jettySize=auto;html=1;exitX=0;exitY=0.5;exitDx=0;exitDy=0;entryX=0.625;entryY=0.2;entryDx=0;entryDy=0;entryPerimeter=0;curved=1;fontStyle=1" parent="1" source="fo2CDZz4YBns0Yib_G0x-18" target="fo2CDZz4YBns0Yib_G0x-16" edge="1">
          <mxGeometry relative="1" as="geometry" />
        </mxCell>
        <mxCell id="fo2CDZz4YBns0Yib_G0x-18" value="Submit the certificate request to a certificate authority" style="rounded=0;whiteSpace=wrap;html=1;fontStyle=1;fillColor=#1ba1e2;fontColor=#ffffff;strokeColor=#006EAF;" parent="1" vertex="1">
          <mxGeometry x="465" y="830" width="210" height="40" as="geometry" />
        </mxCell>
        <mxCell id="fo2CDZz4YBns0Yib_G0x-19" style="rounded=0;orthogonalLoop=1;jettySize=auto;html=1;exitX=0.5;exitY=1;exitDx=0;exitDy=0;entryX=0.5;entryY=0;entryDx=0;entryDy=0;fontStyle=1" parent="1" source="fo2CDZz4YBns0Yib_G0x-20" target="fo2CDZz4YBns0Yib_G0x-29" edge="1">
          <mxGeometry relative="1" as="geometry" />
        </mxCell>
        <mxCell id="fo2CDZz4YBns0Yib_G0x-20" value="Receive a certificate" style="rounded=0;whiteSpace=wrap;html=1;fontStyle=1;fillColor=#1ba1e2;fontColor=#ffffff;strokeColor=#006EAF;" parent="1" vertex="1">
          <mxGeometry x="465" y="920" width="210" height="40" as="geometry" />
        </mxCell>
        <mxCell id="fo2CDZz4YBns0Yib_G0x-21" value="CSR" style="text;html=1;align=center;verticalAlign=middle;resizable=0;points=[];autosize=1;strokeColor=none;fillColor=none;fontStyle=1" parent="1" vertex="1">
          <mxGeometry x="405" y="855" width="50" height="30" as="geometry" />
        </mxCell>
        <mxCell id="fo2CDZz4YBns0Yib_G0x-22" value="CERT" style="text;html=1;align=center;verticalAlign=middle;resizable=0;points=[];autosize=1;strokeColor=none;fillColor=none;fontStyle=1" parent="1" vertex="1">
          <mxGeometry x="400" y="932" width="60" height="30" as="geometry" />
        </mxCell>
        <mxCell id="fo2CDZz4YBns0Yib_G0x-23" value="" style="group" parent="1" vertex="1" connectable="0">
          <mxGeometry x="680" y="757" width="80" height="30" as="geometry" />
        </mxCell>
        <mxCell id="fo2CDZz4YBns0Yib_G0x-24" value="" style="sketch=0;pointerEvents=1;shadow=0;dashed=0;html=1;strokeColor=none;fillColor=#505050;labelPosition=center;verticalLabelPosition=bottom;verticalAlign=top;outlineConnect=0;align=center;shape=mxgraph.office.concepts.file_key;fontStyle=1" parent="fo2CDZz4YBns0Yib_G0x-23" vertex="1">
          <mxGeometry y="3.5" width="20" height="23" as="geometry" />
        </mxCell>
        <mxCell id="fo2CDZz4YBns0Yib_G0x-25" value="&amp;nbsp; &amp;nbsp; &amp;nbsp; &amp;nbsp;client.csr" style="text;html=1;align=center;verticalAlign=middle;resizable=0;points=[];autosize=1;strokeColor=none;fillColor=none;" parent="fo2CDZz4YBns0Yib_G0x-23" vertex="1">
          <mxGeometry x="-10" width="90" height="30" as="geometry" />
        </mxCell>
        <mxCell id="fo2CDZz4YBns0Yib_G0x-26" value="" style="group" parent="1" vertex="1" connectable="0">
          <mxGeometry x="680" y="927" width="79.9976923076923" height="30" as="geometry" />
        </mxCell>
        <mxCell id="fo2CDZz4YBns0Yib_G0x-27" value="" style="sketch=0;pointerEvents=1;shadow=0;dashed=0;html=1;strokeColor=none;fillColor=#FF0080;labelPosition=center;verticalLabelPosition=bottom;verticalAlign=top;outlineConnect=0;align=center;shape=mxgraph.office.concepts.file_key;fontStyle=1" parent="fo2CDZz4YBns0Yib_G0x-26" vertex="1">
          <mxGeometry y="3.5" width="21.538461538461537" height="23" as="geometry" />
        </mxCell>
        <mxCell id="fo2CDZz4YBns0Yib_G0x-28" value="&amp;nbsp; &amp;nbsp;client.crt" style="text;html=1;align=center;verticalAlign=middle;resizable=0;points=[];autosize=1;strokeColor=none;fillColor=none;" parent="fo2CDZz4YBns0Yib_G0x-26" vertex="1">
          <mxGeometry x="-0.002307692307692122" width="80" height="30" as="geometry" />
        </mxCell>
        <mxCell id="fo2CDZz4YBns0Yib_G0x-39" style="edgeStyle=orthogonalEdgeStyle;rounded=0;orthogonalLoop=1;jettySize=auto;html=1;exitX=0.5;exitY=1;exitDx=0;exitDy=0;entryX=0.5;entryY=0;entryDx=0;entryDy=0;fontStyle=1" parent="1" source="fo2CDZz4YBns0Yib_G0x-29" target="fo2CDZz4YBns0Yib_G0x-38" edge="1">
          <mxGeometry relative="1" as="geometry" />
        </mxCell>
        <mxCell id="fo2CDZz4YBns0Yib_G0x-29" value="collect" style="rounded=0;whiteSpace=wrap;html=1;fontStyle=1;fillColor=#1ba1e2;fontColor=#ffffff;strokeColor=#006EAF;" parent="1" vertex="1">
          <mxGeometry x="465" y="1000" width="210" height="40" as="geometry" />
        </mxCell>
        <mxCell id="fo2CDZz4YBns0Yib_G0x-30" value="" style="group" parent="1" vertex="1" connectable="0">
          <mxGeometry x="680" y="1000" width="74.9976923076923" height="30" as="geometry" />
        </mxCell>
        <mxCell id="fo2CDZz4YBns0Yib_G0x-31" value="" style="sketch=0;pointerEvents=1;shadow=0;dashed=0;html=1;strokeColor=none;fillColor=#FF0000;labelPosition=center;verticalLabelPosition=bottom;verticalAlign=top;outlineConnect=0;align=center;shape=mxgraph.office.concepts.file_key;fontStyle=1" parent="fo2CDZz4YBns0Yib_G0x-30" vertex="1">
          <mxGeometry y="3.5" width="21.538461538461537" height="23" as="geometry" />
        </mxCell>
        <mxCell id="fo2CDZz4YBns0Yib_G0x-32" value="ca.cert" style="text;html=1;align=center;verticalAlign=middle;resizable=0;points=[];autosize=1;strokeColor=none;fillColor=none;" parent="fo2CDZz4YBns0Yib_G0x-30" vertex="1">
          <mxGeometry x="9.997692307692308" width="60" height="30" as="geometry" />
        </mxCell>
        <mxCell id="fo2CDZz4YBns0Yib_G0x-33" value="" style="group" parent="1" vertex="1" connectable="0">
          <mxGeometry x="680" y="1029" width="79.9976923076923" height="30" as="geometry" />
        </mxCell>
        <mxCell id="fo2CDZz4YBns0Yib_G0x-34" value="" style="sketch=0;pointerEvents=1;shadow=0;dashed=0;html=1;strokeColor=none;fillColor=#FF0080;labelPosition=center;verticalLabelPosition=bottom;verticalAlign=top;outlineConnect=0;align=center;shape=mxgraph.office.concepts.file_key;fontStyle=1" parent="fo2CDZz4YBns0Yib_G0x-33" vertex="1">
          <mxGeometry y="3.5" width="21.538461538461537" height="23" as="geometry" />
        </mxCell>
        <mxCell id="fo2CDZz4YBns0Yib_G0x-35" value="&amp;nbsp; &amp;nbsp;client.crt" style="text;html=1;align=center;verticalAlign=middle;resizable=0;points=[];autosize=1;strokeColor=none;fillColor=none;" parent="fo2CDZz4YBns0Yib_G0x-33" vertex="1">
          <mxGeometry x="-0.002307692307692122" width="80" height="30" as="geometry" />
        </mxCell>
        <mxCell id="fo2CDZz4YBns0Yib_G0x-36" value="" style="sketch=0;pointerEvents=1;shadow=0;dashed=0;html=1;strokeColor=none;labelPosition=center;verticalLabelPosition=bottom;verticalAlign=top;outlineConnect=0;align=center;shape=mxgraph.office.security.key_permissions;fillColor=#DA4026;fontStyle=1" parent="1" vertex="1">
          <mxGeometry x="680" y="1059" width="10" height="20" as="geometry" />
        </mxCell>
        <mxCell id="fo2CDZz4YBns0Yib_G0x-37" value="" style="sketch=0;pointerEvents=1;shadow=0;dashed=0;html=1;strokeColor=none;labelPosition=center;verticalLabelPosition=bottom;verticalAlign=top;outlineConnect=0;align=center;shape=mxgraph.office.security.key_permissions;fillColor=#7FBA42;fontStyle=1" parent="1" vertex="1">
          <mxGeometry x="700" y="1059" width="10" height="20" as="geometry" />
        </mxCell>
        <mxCell id="fo2CDZz4YBns0Yib_G0x-41" style="edgeStyle=orthogonalEdgeStyle;rounded=0;orthogonalLoop=1;jettySize=auto;html=1;exitX=0.5;exitY=1;exitDx=0;exitDy=0;fontStyle=1" parent="1" source="fo2CDZz4YBns0Yib_G0x-38" target="fo2CDZz4YBns0Yib_G0x-40" edge="1">
          <mxGeometry relative="1" as="geometry" />
        </mxCell>
        <mxCell id="fo2CDZz4YBns0Yib_G0x-38" value="Run OpenVPN" style="rounded=0;whiteSpace=wrap;html=1;fontStyle=1;fillColor=#1ba1e2;fontColor=#ffffff;strokeColor=#006EAF;" parent="1" vertex="1">
          <mxGeometry x="465" y="1089" width="210" height="40" as="geometry" />
        </mxCell>
        <mxCell id="fo2CDZz4YBns0Yib_G0x-40" value="OpenVPN challenge&lt;br&gt;Process" style="rounded=0;whiteSpace=wrap;html=1;fontStyle=1;fillColor=#1ba1e2;fontColor=#ffffff;strokeColor=#006EAF;" parent="1" vertex="1">
          <mxGeometry x="505" y="1170" width="130" height="40" as="geometry" />
        </mxCell>
        <mxCell id="Y7tWuOjDYnu3Ty12sWAu-1" value="TCU （F1）" style="rounded=0;whiteSpace=wrap;html=1;align=left;horizontal=1;verticalAlign=top;fontStyle=1" vertex="1" parent="1">
          <mxGeometry x="-710" y="180" width="210" height="130" as="geometry" />
        </mxCell>
        <mxCell id="Y7tWuOjDYnu3Ty12sWAu-2" value="CAN扩展&lt;br&gt;休眠唤醒&lt;br&gt;F2" style="rounded=0;whiteSpace=wrap;html=1;fontStyle=1" vertex="1" parent="1">
          <mxGeometry x="-590" y="230" width="70" height="50" as="geometry" />
        </mxCell>
        <mxCell id="Y7tWuOjDYnu3Ty12sWAu-3" value="" style="sketch=0;pointerEvents=1;shadow=0;dashed=0;html=1;strokeColor=#6F0000;fillColor=#a20025;labelPosition=center;verticalLabelPosition=bottom;verticalAlign=top;outlineConnect=0;align=center;shape=mxgraph.office.security.lock_with_key_security;fontColor=#ffffff;" vertex="1" parent="1">
          <mxGeometry x="-522" y="45" width="20" height="20" as="geometry" />
        </mxCell>
        <mxCell id="Y7tWuOjDYnu3Ty12sWAu-16" style="edgeStyle=orthogonalEdgeStyle;rounded=0;orthogonalLoop=1;jettySize=auto;html=1;exitX=0.5;exitY=1;exitDx=0;exitDy=0;dashed=1;curved=1;" edge="1" parent="1" source="Y7tWuOjDYnu3Ty12sWAu-4" target="Y7tWuOjDYnu3Ty12sWAu-11">
          <mxGeometry relative="1" as="geometry" />
        </mxCell>
        <mxCell id="Y7tWuOjDYnu3Ty12sWAu-4" value="TCU Main (F1)" style="rounded=0;whiteSpace=wrap;html=1;align=left;horizontal=1;verticalAlign=top;fontStyle=1;fillColor=#1ba1e2;fontColor=#ffffff;strokeColor=#006EAF;" vertex="1" parent="1">
          <mxGeometry x="-700" y="70" width="130" height="50" as="geometry" />
        </mxCell>
        <mxCell id="Y7tWuOjDYnu3Ty12sWAu-15" style="edgeStyle=orthogonalEdgeStyle;rounded=0;orthogonalLoop=1;jettySize=auto;html=1;exitX=0.5;exitY=1;exitDx=0;exitDy=0;dashed=1;curved=1;" edge="1" parent="1" source="Y7tWuOjDYnu3Ty12sWAu-5" target="Y7tWuOjDYnu3Ty12sWAu-2">
          <mxGeometry relative="1" as="geometry" />
        </mxCell>
        <mxCell id="Y7tWuOjDYnu3Ty12sWAu-5" value="(F2)" style="rounded=0;whiteSpace=wrap;html=1;align=left;horizontal=1;verticalAlign=top;fontStyle=1;fillColor=#008a00;strokeColor=#005700;fontColor=#ffffff;" vertex="1" parent="1">
          <mxGeometry x="-570" y="70" width="60" height="50" as="geometry" />
        </mxCell>
        <mxCell id="Y7tWuOjDYnu3Ty12sWAu-11" value="TCU Main F1" style="rounded=0;whiteSpace=wrap;html=1;fontStyle=1" vertex="1" parent="1">
          <mxGeometry x="-700" y="230" width="100" height="50" as="geometry" />
        </mxCell>
        <mxCell id="Y7tWuOjDYnu3Ty12sWAu-12" value="" style="endArrow=classic;html=1;rounded=0;" edge="1" parent="1">
          <mxGeometry width="50" height="50" relative="1" as="geometry">
            <mxPoint x="-398" y="12.870000000000001" as="sourcePoint" />
            <mxPoint x="-510.0000000000002" y="45.00114754098342" as="targetPoint" />
          </mxGeometry>
        </mxCell>
        <mxCell id="Y7tWuOjDYnu3Ty12sWAu-13" value="&lt;b&gt;Protected by :&lt;br&gt;&lt;/b&gt;* Secure Boot&lt;br&gt;* Secure Storage&lt;br&gt;* TEE" style="text;html=1;strokeColor=none;fillColor=none;align=left;verticalAlign=middle;whiteSpace=wrap;rounded=0;" vertex="1" parent="1">
          <mxGeometry x="-398" y="-17.13" width="180" height="60" as="geometry" />
        </mxCell>
        <mxCell id="Y7tWuOjDYnu3Ty12sWAu-17" value="TCU Firmware (F1)" style="rounded=0;whiteSpace=wrap;html=1;align=left;horizontal=1;verticalAlign=top;fontStyle=1;fillColor=#fad9d5;strokeColor=#ae4132;" vertex="1" parent="1">
          <mxGeometry x="-700" y="387.13" width="210" height="90" as="geometry" />
        </mxCell>
        <mxCell id="Y7tWuOjDYnu3Ty12sWAu-29" style="edgeStyle=orthogonalEdgeStyle;rounded=0;orthogonalLoop=1;jettySize=auto;html=1;exitX=1;exitY=0.5;exitDx=0;exitDy=0;startArrow=classic;startFill=1;" edge="1" parent="1" source="Y7tWuOjDYnu3Ty12sWAu-18" target="Y7tWuOjDYnu3Ty12sWAu-19">
          <mxGeometry relative="1" as="geometry" />
        </mxCell>
        <mxCell id="Y7tWuOjDYnu3Ty12sWAu-18" value="TCU （F1）" style="rounded=0;whiteSpace=wrap;html=1;align=left;horizontal=1;verticalAlign=top;fontStyle=1" vertex="1" parent="1">
          <mxGeometry x="-700" y="527.13" width="210" height="130" as="geometry" />
        </mxCell>
        <mxCell id="Y7tWuOjDYnu3Ty12sWAu-19" value="CAN扩展&lt;br&gt;休眠唤醒&lt;br&gt;F2" style="rounded=0;whiteSpace=wrap;html=1;fontStyle=1" vertex="1" parent="1">
          <mxGeometry x="-388" y="567.13" width="98" height="50" as="geometry" />
        </mxCell>
        <mxCell id="Y7tWuOjDYnu3Ty12sWAu-20" value="" style="sketch=0;pointerEvents=1;shadow=0;dashed=0;html=1;strokeColor=#6F0000;fillColor=#a20025;labelPosition=center;verticalLabelPosition=bottom;verticalAlign=top;outlineConnect=0;align=center;shape=mxgraph.office.security.lock_with_key_security;fontColor=#ffffff;" vertex="1" parent="1">
          <mxGeometry x="-512" y="392.13" width="20" height="20" as="geometry" />
        </mxCell>
        <mxCell id="Y7tWuOjDYnu3Ty12sWAu-21" style="edgeStyle=orthogonalEdgeStyle;rounded=0;orthogonalLoop=1;jettySize=auto;html=1;exitX=0.5;exitY=1;exitDx=0;exitDy=0;dashed=1;curved=1;" edge="1" parent="1" source="Y7tWuOjDYnu3Ty12sWAu-22" target="Y7tWuOjDYnu3Ty12sWAu-25">
          <mxGeometry relative="1" as="geometry" />
        </mxCell>
        <mxCell id="Y7tWuOjDYnu3Ty12sWAu-22" value="TCU Main (F1)" style="rounded=0;whiteSpace=wrap;html=1;align=left;horizontal=1;verticalAlign=top;fontStyle=1;fillColor=#1ba1e2;fontColor=#ffffff;strokeColor=#006EAF;" vertex="1" parent="1">
          <mxGeometry x="-690" y="417.13" width="130" height="50" as="geometry" />
        </mxCell>
        <mxCell id="Y7tWuOjDYnu3Ty12sWAu-32" style="edgeStyle=orthogonalEdgeStyle;rounded=0;orthogonalLoop=1;jettySize=auto;html=1;exitX=0.5;exitY=1;exitDx=0;exitDy=0;entryX=0.75;entryY=0;entryDx=0;entryDy=0;elbow=vertical;curved=1;dashed=1;" edge="1" parent="1" source="Y7tWuOjDYnu3Ty12sWAu-24" target="Y7tWuOjDYnu3Ty12sWAu-25">
          <mxGeometry relative="1" as="geometry" />
        </mxCell>
        <mxCell id="Y7tWuOjDYnu3Ty12sWAu-24" value="(F2)" style="rounded=0;whiteSpace=wrap;html=1;align=left;horizontal=1;verticalAlign=top;fontStyle=1;fillColor=#008a00;strokeColor=#005700;fontColor=#ffffff;" vertex="1" parent="1">
          <mxGeometry x="-560" y="417.13" width="60" height="50" as="geometry" />
        </mxCell>
        <mxCell id="Y7tWuOjDYnu3Ty12sWAu-33" style="edgeStyle=orthogonalEdgeStyle;rounded=0;orthogonalLoop=1;jettySize=auto;html=1;exitX=1;exitY=0.5;exitDx=0;exitDy=0;entryX=0;entryY=0.75;entryDx=0;entryDy=0;curved=1;dashed=1;" edge="1" parent="1" source="Y7tWuOjDYnu3Ty12sWAu-25" target="Y7tWuOjDYnu3Ty12sWAu-19">
          <mxGeometry relative="1" as="geometry" />
        </mxCell>
        <mxCell id="Y7tWuOjDYnu3Ty12sWAu-25" value="TCU Main F1" style="rounded=0;whiteSpace=wrap;html=1;fontStyle=1" vertex="1" parent="1">
          <mxGeometry x="-690" y="577.13" width="180" height="50" as="geometry" />
        </mxCell>
        <mxCell id="Y7tWuOjDYnu3Ty12sWAu-26" value="" style="endArrow=classic;html=1;rounded=0;" edge="1" parent="1">
          <mxGeometry width="50" height="50" relative="1" as="geometry">
            <mxPoint x="-388" y="360" as="sourcePoint" />
            <mxPoint x="-500.0000000000002" y="392.1311475409834" as="targetPoint" />
          </mxGeometry>
        </mxCell>
        <mxCell id="Y7tWuOjDYnu3Ty12sWAu-27" value="&lt;b&gt;Protected by :&lt;br&gt;&lt;/b&gt;* Secure Boot&lt;br&gt;* Secure Storage&lt;br&gt;* TEE" style="text;html=1;strokeColor=none;fillColor=none;align=left;verticalAlign=middle;whiteSpace=wrap;rounded=0;" vertex="1" parent="1">
          <mxGeometry x="-388" y="340" width="180" height="60" as="geometry" />
        </mxCell>
        <mxCell id="Y7tWuOjDYnu3Ty12sWAu-30" value="UART/SPI/GPIO" style="text;html=1;align=center;verticalAlign=middle;resizable=0;points=[];autosize=1;strokeColor=none;fillColor=none;" vertex="1" parent="1">
          <mxGeometry x="-493" y="560" width="110" height="30" as="geometry" />
        </mxCell>
        <mxCell id="Y7tWuOjDYnu3Ty12sWAu-40" value="" style="group" vertex="1" connectable="0" parent="1">
          <mxGeometry x="-310" y="555" width="30" height="30" as="geometry" />
        </mxCell>
        <mxCell id="Y7tWuOjDYnu3Ty12sWAu-41" value="" style="sketch=0;pointerEvents=1;shadow=0;dashed=0;html=1;strokeColor=#6F0000;fillColor=#a20025;labelPosition=center;verticalLabelPosition=bottom;verticalAlign=top;outlineConnect=0;align=center;shape=mxgraph.office.security.lock_with_key_security;fontColor=#ffffff;" vertex="1" parent="Y7tWuOjDYnu3Ty12sWAu-40">
          <mxGeometry x="7" y="3" width="20" height="20" as="geometry" />
        </mxCell>
        <mxCell id="Y7tWuOjDYnu3Ty12sWAu-42" value="" style="endArrow=none;html=1;rounded=0;strokeWidth=2;" edge="1" parent="Y7tWuOjDYnu3Ty12sWAu-40">
          <mxGeometry width="50" height="50" relative="1" as="geometry">
            <mxPoint y="30" as="sourcePoint" />
            <mxPoint x="30" as="targetPoint" />
          </mxGeometry>
        </mxCell>
        <mxCell id="Y7tWuOjDYnu3Ty12sWAu-43" value="" style="endArrow=none;html=1;rounded=0;strokeWidth=2;" edge="1" parent="Y7tWuOjDYnu3Ty12sWAu-40">
          <mxGeometry width="50" height="50" relative="1" as="geometry">
            <mxPoint x="30" y="27.870000000000005" as="sourcePoint" />
            <mxPoint y="0.7400000000000091" as="targetPoint" />
          </mxGeometry>
        </mxCell>
        <mxCell id="Y7tWuOjDYnu3Ty12sWAu-44" value="" style="group" vertex="1" connectable="0" parent="1">
          <mxGeometry x="-420" y="610" width="30" height="30" as="geometry" />
        </mxCell>
        <mxCell id="Y7tWuOjDYnu3Ty12sWAu-45" value="" style="sketch=0;pointerEvents=1;shadow=0;dashed=0;html=1;strokeColor=#6F0000;fillColor=#a20025;labelPosition=center;verticalLabelPosition=bottom;verticalAlign=top;outlineConnect=0;align=center;shape=mxgraph.office.security.lock_with_key_security;fontColor=#ffffff;" vertex="1" parent="Y7tWuOjDYnu3Ty12sWAu-44">
          <mxGeometry x="7" y="3" width="20" height="20" as="geometry" />
        </mxCell>
        <mxCell id="Y7tWuOjDYnu3Ty12sWAu-46" value="" style="endArrow=none;html=1;rounded=0;strokeWidth=2;" edge="1" parent="Y7tWuOjDYnu3Ty12sWAu-44">
          <mxGeometry width="50" height="50" relative="1" as="geometry">
            <mxPoint y="30" as="sourcePoint" />
            <mxPoint x="30" as="targetPoint" />
          </mxGeometry>
        </mxCell>
        <mxCell id="Y7tWuOjDYnu3Ty12sWAu-47" value="" style="endArrow=none;html=1;rounded=0;strokeWidth=2;" edge="1" parent="Y7tWuOjDYnu3Ty12sWAu-44">
          <mxGeometry width="50" height="50" relative="1" as="geometry">
            <mxPoint x="30" y="27.870000000000005" as="sourcePoint" />
            <mxPoint y="0.7400000000000091" as="targetPoint" />
          </mxGeometry>
        </mxCell>
        <mxCell id="Y7tWuOjDYnu3Ty12sWAu-49" value="TCU Firmware (F1)" style="rounded=0;whiteSpace=wrap;html=1;align=left;horizontal=1;verticalAlign=top;fontStyle=1;fillColor=#fad9d5;strokeColor=#ae4132;" vertex="1" parent="1">
          <mxGeometry x="-700" y="770" width="210" height="90" as="geometry" />
        </mxCell>
        <mxCell id="Y7tWuOjDYnu3Ty12sWAu-50" style="edgeStyle=orthogonalEdgeStyle;rounded=0;orthogonalLoop=1;jettySize=auto;html=1;exitX=1;exitY=0.5;exitDx=0;exitDy=0;startArrow=classic;startFill=1;" edge="1" parent="1" source="Y7tWuOjDYnu3Ty12sWAu-51" target="Y7tWuOjDYnu3Ty12sWAu-52">
          <mxGeometry relative="1" as="geometry" />
        </mxCell>
        <mxCell id="Y7tWuOjDYnu3Ty12sWAu-51" value="TCU （F1）" style="rounded=0;whiteSpace=wrap;html=1;align=left;horizontal=1;verticalAlign=top;fontStyle=1" vertex="1" parent="1">
          <mxGeometry x="-700" y="910" width="210" height="130" as="geometry" />
        </mxCell>
        <mxCell id="Y7tWuOjDYnu3Ty12sWAu-52" value="CAN扩展&lt;br&gt;休眠唤醒&lt;br&gt;F2" style="rounded=0;whiteSpace=wrap;html=1;fontStyle=1" vertex="1" parent="1">
          <mxGeometry x="-388" y="950" width="98" height="50" as="geometry" />
        </mxCell>
        <mxCell id="Y7tWuOjDYnu3Ty12sWAu-53" value="" style="sketch=0;pointerEvents=1;shadow=0;dashed=0;html=1;strokeColor=#6F0000;fillColor=#a20025;labelPosition=center;verticalLabelPosition=bottom;verticalAlign=top;outlineConnect=0;align=center;shape=mxgraph.office.security.lock_with_key_security;fontColor=#ffffff;" vertex="1" parent="1">
          <mxGeometry x="-512" y="775" width="20" height="20" as="geometry" />
        </mxCell>
        <mxCell id="Y7tWuOjDYnu3Ty12sWAu-54" style="edgeStyle=orthogonalEdgeStyle;rounded=0;orthogonalLoop=1;jettySize=auto;html=1;exitX=0.5;exitY=1;exitDx=0;exitDy=0;dashed=1;curved=1;" edge="1" parent="1" source="Y7tWuOjDYnu3Ty12sWAu-55" target="Y7tWuOjDYnu3Ty12sWAu-59">
          <mxGeometry relative="1" as="geometry" />
        </mxCell>
        <mxCell id="Y7tWuOjDYnu3Ty12sWAu-55" value="TCU Main (F1)" style="rounded=0;whiteSpace=wrap;html=1;align=left;horizontal=1;verticalAlign=top;fontStyle=1;fillColor=#1ba1e2;fontColor=#ffffff;strokeColor=#006EAF;" vertex="1" parent="1">
          <mxGeometry x="-690" y="800" width="130" height="50" as="geometry" />
        </mxCell>
        <mxCell id="Y7tWuOjDYnu3Ty12sWAu-56" style="edgeStyle=orthogonalEdgeStyle;rounded=0;orthogonalLoop=1;jettySize=auto;html=1;exitX=0.5;exitY=1;exitDx=0;exitDy=0;entryX=0.75;entryY=0;entryDx=0;entryDy=0;elbow=vertical;curved=1;dashed=1;" edge="1" parent="1" source="Y7tWuOjDYnu3Ty12sWAu-57" target="Y7tWuOjDYnu3Ty12sWAu-59">
          <mxGeometry relative="1" as="geometry" />
        </mxCell>
        <mxCell id="Y7tWuOjDYnu3Ty12sWAu-57" value="(F2)" style="rounded=0;whiteSpace=wrap;html=1;align=left;horizontal=1;verticalAlign=top;fontStyle=1;fillColor=#008a00;strokeColor=#005700;fontColor=#ffffff;" vertex="1" parent="1">
          <mxGeometry x="-560" y="800" width="60" height="50" as="geometry" />
        </mxCell>
        <mxCell id="Y7tWuOjDYnu3Ty12sWAu-58" style="edgeStyle=orthogonalEdgeStyle;rounded=0;orthogonalLoop=1;jettySize=auto;html=1;exitX=1;exitY=0.5;exitDx=0;exitDy=0;entryX=0;entryY=0.75;entryDx=0;entryDy=0;curved=1;dashed=1;" edge="1" parent="1" source="Y7tWuOjDYnu3Ty12sWAu-59" target="Y7tWuOjDYnu3Ty12sWAu-52">
          <mxGeometry relative="1" as="geometry" />
        </mxCell>
        <mxCell id="Y7tWuOjDYnu3Ty12sWAu-59" value="TCU Main F1" style="rounded=0;whiteSpace=wrap;html=1;fontStyle=1" vertex="1" parent="1">
          <mxGeometry x="-690" y="960" width="180" height="50" as="geometry" />
        </mxCell>
        <mxCell id="Y7tWuOjDYnu3Ty12sWAu-60" value="" style="endArrow=classic;html=1;rounded=0;" edge="1" parent="1">
          <mxGeometry width="50" height="50" relative="1" as="geometry">
            <mxPoint x="-388" y="742.87" as="sourcePoint" />
            <mxPoint x="-500.0000000000002" y="775.0011475409834" as="targetPoint" />
          </mxGeometry>
        </mxCell>
        <mxCell id="Y7tWuOjDYnu3Ty12sWAu-61" value="&lt;b&gt;Protected by :&lt;br&gt;&lt;/b&gt;* Secure Boot&lt;br&gt;* Secure Storage&lt;br&gt;* TEE" style="text;html=1;strokeColor=none;fillColor=none;align=left;verticalAlign=middle;whiteSpace=wrap;rounded=0;" vertex="1" parent="1">
          <mxGeometry x="-388" y="722.87" width="180" height="60" as="geometry" />
        </mxCell>
        <mxCell id="Y7tWuOjDYnu3Ty12sWAu-62" value="UART/SPI/GPIO" style="text;html=1;align=center;verticalAlign=middle;resizable=0;points=[];autosize=1;strokeColor=none;fillColor=none;" vertex="1" parent="1">
          <mxGeometry x="-493" y="942.87" width="110" height="30" as="geometry" />
        </mxCell>
        <mxCell id="Y7tWuOjDYnu3Ty12sWAu-71" value="" style="sketch=0;pointerEvents=1;shadow=0;dashed=0;html=1;strokeColor=none;fillColor=#220dbf;labelPosition=center;verticalLabelPosition=bottom;verticalAlign=top;outlineConnect=0;align=center;shape=mxgraph.office.security.lock_with_key_security;fontColor=#ffffff;" vertex="1" parent="1">
          <mxGeometry x="-513" y="800" width="20" height="20" as="geometry" />
        </mxCell>
        <mxCell id="Y7tWuOjDYnu3Ty12sWAu-72" value="" style="sketch=0;pointerEvents=1;shadow=0;dashed=0;html=1;strokeColor=none;fillColor=#220dbf;labelPosition=center;verticalLabelPosition=bottom;verticalAlign=top;outlineConnect=0;align=center;shape=mxgraph.office.security.lock_with_key_security;fontColor=#ffffff;" vertex="1" parent="1">
          <mxGeometry x="-305" y="940" width="20" height="20" as="geometry" />
        </mxCell>
        <mxCell id="Y7tWuOjDYnu3Ty12sWAu-74" style="edgeStyle=orthogonalEdgeStyle;rounded=0;orthogonalLoop=1;jettySize=auto;html=1;exitX=0.5;exitY=1;exitDx=0;exitDy=0;elbow=vertical;curved=1;" edge="1" parent="1" source="Y7tWuOjDYnu3Ty12sWAu-73" target="Y7tWuOjDYnu3Ty12sWAu-72">
          <mxGeometry relative="1" as="geometry">
            <Array as="points">
              <mxPoint x="-260" y="910" />
              <mxPoint x="-295" y="910" />
            </Array>
          </mxGeometry>
        </mxCell>
        <mxCell id="Y7tWuOjDYnu3Ty12sWAu-73" value="&lt;b&gt;Protected by :&lt;br&gt;&lt;/b&gt;* Secure Boot (RSA + Encryption)&lt;br&gt;* Secure Storage (cert / key storing)" style="text;html=1;strokeColor=none;fillColor=none;align=left;verticalAlign=middle;whiteSpace=wrap;rounded=0;" vertex="1" parent="1">
          <mxGeometry x="-350" y="840" width="210" height="60" as="geometry" />
        </mxCell>
        <mxCell id="Y7tWuOjDYnu3Ty12sWAu-83" style="edgeStyle=orthogonalEdgeStyle;rounded=0;orthogonalLoop=1;jettySize=auto;html=1;exitX=1;exitY=0.5;exitDx=0;exitDy=0;entryX=0;entryY=0.5;entryDx=0;entryDy=0;startArrow=classic;startFill=1;" edge="1" parent="1" source="Y7tWuOjDYnu3Ty12sWAu-75" target="Y7tWuOjDYnu3Ty12sWAu-80">
          <mxGeometry relative="1" as="geometry" />
        </mxCell>
        <mxCell id="Y7tWuOjDYnu3Ty12sWAu-75" value="TCU （F1）" style="rounded=0;whiteSpace=wrap;html=1;align=left;horizontal=1;verticalAlign=top;fontStyle=1" vertex="1" parent="1">
          <mxGeometry x="-450" y="-280" width="210" height="130" as="geometry" />
        </mxCell>
        <mxCell id="Y7tWuOjDYnu3Ty12sWAu-79" value="TCU Main F1" style="rounded=0;whiteSpace=wrap;html=1;fontStyle=1" vertex="1" parent="1">
          <mxGeometry x="-390" y="-230" width="100" height="50" as="geometry" />
        </mxCell>
        <mxCell id="Y7tWuOjDYnu3Ty12sWAu-80" value="S32K1 （F2）" style="rounded=0;whiteSpace=wrap;html=1;align=left;horizontal=1;verticalAlign=top;fontStyle=1" vertex="1" parent="1">
          <mxGeometry x="-95" y="-265" width="162.5" height="100" as="geometry" />
        </mxCell>
        <mxCell id="Y7tWuOjDYnu3Ty12sWAu-81" value="休眠唤醒&lt;br&gt;CAN扩展功能" style="rounded=0;whiteSpace=wrap;html=1;fontStyle=1" vertex="1" parent="1">
          <mxGeometry x="-65" y="-235" width="100" height="50" as="geometry" />
        </mxCell>
        <mxCell id="Y7tWuOjDYnu3Ty12sWAu-84" value="SPI/GPIO/UART/CAN" style="text;html=1;align=center;verticalAlign=middle;resizable=0;points=[];autosize=1;strokeColor=none;fillColor=none;fontStyle=1" vertex="1" parent="1">
          <mxGeometry x="-235" y="-210" width="140" height="30" as="geometry" />
        </mxCell>
        <mxCell id="Y7tWuOjDYnu3Ty12sWAu-88" value="" style="edgeStyle=orthogonalEdgeStyle;rounded=0;orthogonalLoop=1;jettySize=auto;html=1;" edge="1" parent="1" source="Y7tWuOjDYnu3Ty12sWAu-86" target="Y7tWuOjDYnu3Ty12sWAu-80">
          <mxGeometry relative="1" as="geometry" />
        </mxCell>
        <mxCell id="Y7tWuOjDYnu3Ty12sWAu-86" value="HSM" style="rounded=0;whiteSpace=wrap;html=1;align=center;horizontal=1;verticalAlign=middle;fontStyle=1;fillColor=#a20025;fontColor=#ffffff;strokeColor=#6F0000;" vertex="1" parent="1">
          <mxGeometry x="145" y="-250" width="105" height="70" as="geometry" />
        </mxCell>
      </root>
    </mxGraphModel>
  </diagram>
</mxfile>
